<svg width="360" height="77" viewBox="0 0 360 77" fill="none" xmlns="http://www.w3.org/2000/svg">
<path d="M0.713282 75H28.8133C45.0133 75 57.9133 68.2 57.9133 53C57.9133 43.1 52.2133 37.5 44.7133 35.5V35.1C50.7133 32.8 54.4133 25.6 54.4133 19C54.4133 4.7 42.1133 0.499994 26.7133 0.499994H0.713282V75ZM18.6133 30.1V14.2H26.0133C33.5133 14.2 37.0133 16.4 37.0133 21.7C37.0133 26.8 33.6133 30.1 26.0133 30.1H18.6133ZM18.6133 61.3V43.2H27.5133C36.2133 43.2 40.5133 45.7 40.5133 51.8C40.5133 58.2 36.1133 61.3 27.5133 61.3H18.6133ZM83.2445 76.4C89.5445 76.4 94.8445 73.5 99.5445 69.3H100.045L101.245 75H115.745V42.7C115.745 24.9 107.445 16.7 92.7445 16.7C83.8445 16.7 75.7445 19.7 68.2445 24.2L74.4445 35.9C80.1445 32.7 84.8445 30.9 89.3445 30.9C95.1445 30.9 97.5445 33.6 97.9445 38.2C75.7445 40.6 66.3445 47.1 66.3445 59.1C66.3445 68.6 72.7445 76.4 83.2445 76.4ZM89.3445 62.6C85.6445 62.6 83.2445 61 83.2445 57.7C83.2445 53.7 86.8445 50.4 97.9445 49V58.1C95.3445 60.9 92.9445 62.6 89.3445 62.6ZM129.489 75H147.289V37C150.689 33.7 153.089 31.9 157.089 31.9C161.589 31.9 163.689 34.1 163.689 42V75H181.489V39.8C181.489 25.6 176.189 16.7 163.789 16.7C156.089 16.7 150.289 20.6 145.589 25.2H145.289L143.989 18.1H129.489V75ZM195.309 75H213.109V37C216.509 33.7 218.909 31.9 222.909 31.9C227.409 31.9 229.509 34.1 229.509 42V75H247.309V39.8C247.309 25.6 242.009 16.7 229.609 16.7C221.909 16.7 216.109 20.6 211.409 25.2H211.109L209.809 18.1H195.309V75ZM286.93 76.4C293.53 76.4 301.33 74.1 307.23 69.9L301.33 59.2C297.23 61.6 293.43 62.8 289.33 62.8C282.13 62.8 276.73 59.6 275.13 51.8H308.53C308.93 50.4 309.33 47.3 309.33 44.1C309.33 28.6 301.33 16.7 284.93 16.7C271.23 16.7 257.93 28.1 257.93 46.5C257.93 65.4 270.53 76.4 286.93 76.4ZM274.83 40.1C276.03 33.4 280.33 30.3 285.23 30.3C291.73 30.3 294.23 34.5 294.23 40.1H274.83ZM320.7 75H338.5V42.5C341.4 35 346.5 32.3 350.7 32.3C353.2 32.3 354.9 32.7 357 33.2L359.9 17.9C358.3 17.2 356.4 16.7 353 16.7C347.3 16.7 341 20.4 336.8 28H336.5L335.2 18.1H320.7V75Z" fill="black"/>
</svg>
