<svg width="23" height="24" viewBox="0 0 23 24" fill="none" xmlns="http://www.w3.org/2000/svg">
<path d="M13.0607 13.0607C13.6464 12.4749 13.6464 11.5251 13.0607 10.9393L3.51472 1.3934C2.92893 0.807612 1.97918 0.807612 1.3934 1.3934C0.807612 1.97918 0.807612 2.92893 1.3934 3.51472L9.87868 12L1.3934 20.4853C0.807612 21.0711 0.807612 22.0208 1.3934 22.6066C1.97918 23.1924 2.92893 23.1924 3.51472 22.6066L13.0607 13.0607ZM11 13.5H12V10.5H11V13.5Z" fill="white"/>
<path d="M9.93934 10.9393C9.35355 11.5251 9.35355 12.4749 9.93934 13.0607L19.4853 22.6066C20.0711 23.1924 21.0208 23.1924 21.6066 22.6066C22.1924 22.0208 22.1924 21.0711 21.6066 20.4853L13.1213 12L21.6066 3.51472C22.1924 2.92893 22.1924 1.97918 21.6066 1.3934C21.0208 0.807612 20.0711 0.807612 19.4853 1.3934L9.93934 10.9393ZM12 10.5H11V13.5H12V10.5Z" fill="white"/>
</svg>
