<svg width="17" height="12" viewBox="0 0 17 12" fill="none" xmlns="http://www.w3.org/2000/svg">
<path d="M16.3536 7.85355C16.5488 7.65829 16.5488 7.34171 16.3536 7.14645L13.1716 3.96447C12.9763 3.7692 12.6597 3.7692 12.4645 3.96447C12.2692 4.15973 12.2692 4.47631 12.4645 4.67157L15.2929 7.5L12.4645 10.3284C12.2692 10.5237 12.2692 10.8403 12.4645 11.0355C12.6597 11.2308 12.9763 11.2308 13.1716 11.0355L16.3536 7.85355ZM0.5 7.5H0V8H0.5V7.5ZM0 0.5V7.5H1V0.5L0 0.5ZM0.5 8H16V7L0.5 7V8Z" fill="#C9C9C9"/>
</svg>
