<svg width="30" height="39" viewBox="0 0 30 39" fill="none" xmlns="http://www.w3.org/2000/svg">
<path d="M21.1189 19.532C24.2516 19.532 26.7912 17.1492 26.7912 14.2098C26.7912 11.2705 24.2516 8.88763 21.1189 8.88763C17.9861 8.88763 15.4465 11.2705 15.4465 14.2098C15.4465 17.1492 17.9861 19.532 21.1189 19.532Z" stroke="white" stroke-width="3"/>
<path d="M17.7803 11.0534C16.2703 8.82275 17.8761 11.0149 16.2703 8.82275C14.2309 6.03875 23.7709 3.24625 27.4856 4.47292C31.2005 5.69949 17.7803 11.0534 17.7803 11.0534Z" fill="white"/>
<path d="M21.2788 26.1225C21.1481 24.5551 22.177 23.1441 23.6954 22.7345C26.9917 21.7127 26.5262 31.642 24.1569 34.755C22.4503 36.9975 21.6134 30.1356 21.2788 26.1225Z" fill="white"/>
<path d="M8.47237 19.4946C11.6051 19.4946 14.1447 17.1118 14.1447 14.1724C14.1447 11.233 11.6051 8.85022 8.47237 8.85022C5.33963 8.85022 2.80005 11.233 2.80005 14.1724C2.80005 17.1118 5.33963 19.4946 8.47237 19.4946Z" stroke="white" stroke-width="3"/>
<path d="M11.8213 11.0818C13.3313 8.85113 11.7255 11.0433 13.3313 8.85113C15.3706 6.06713 5.83071 3.27463 2.11596 4.5013C-1.59889 5.72787 11.8213 11.0818 11.8213 11.0818Z" fill="white"/>
<path d="M8.39822 9.18452C8.67801 7.61302 8.33708 9.18678 8.67801 7.61302C9.11101 5.61436 3.27352 6.402 1.5582 7.9614C-0.157199 9.52077 8.39822 9.18452 8.39822 9.18452Z" fill="white"/>
<path d="M19.8623 9.54489C19.6631 7.93318 19.9343 9.54215 19.6631 7.93318C19.3186 5.88982 26.143 6.22273 28.0376 7.70219C29.9323 9.18161 19.8623 9.54489 19.8623 9.54489Z" fill="white"/>
<path d="M8.72121 26.1106C8.85188 24.5432 7.82304 23.1322 6.30457 22.7226C3.00829 21.7008 3.47383 31.6301 5.84307 34.7431C7.54974 36.9856 8.38662 30.1237 8.72121 26.1106Z" fill="white"/>
<path d="M13.7954 21.0531C14.3224 19.8136 13.8376 21.0829 14.3224 19.8136C14.938 18.2017 18.6997 21.4499 19.1928 23.3428C19.6859 25.2357 13.7954 21.0531 13.7954 21.0531Z" fill="white"/>
<path d="M13.4719 20.2712C14.6041 19.5417 13.49 20.3196 14.6041 19.5417C16.0188 18.5539 17.3065 23.3543 16.6511 25.1973C15.9958 27.0403 13.4719 20.2712 13.4719 20.2712Z" fill="white"/>
<path d="M13.878 20.651C14.1633 19.915 14.9276 19.532 15.7078 19.6518C17.4133 19.9137 15.0312 24.2758 13.2848 25.1568C12.0279 25.791 13.1502 22.5292 13.878 20.651Z" fill="white"/>
<path d="M14.9417 21.9236C15.5953 21.4211 15.7912 20.5145 15.4328 19.7721C14.6844 18.2218 11.2084 21.7692 10.8757 23.6926C10.6391 25.0597 13.3525 23.1452 14.9417 21.9236Z" fill="white"/>
<path d="M18.7143 37.2128C18.624 37.067 18.6226 36.9205 18.7633 36.8225C18.7895 36.8043 18.8577 36.7407 18.8782 36.7162C19.0774 36.4773 19.7857 37.7612 19.6212 38.224C19.4963 38.4238 18.9791 37.6408 18.7143 37.2128Z" fill="white"/>
<path d="M18.1349 37.2319C18.1306 37.0246 18.278 36.8551 18.4796 36.8062C18.9201 36.6994 18.7774 37.9973 18.4412 38.386C18.1992 38.6657 18.1458 37.761 18.1349 37.2319Z" fill="white"/>
<path d="M17.6784 37.1073C17.7963 36.9366 18.015 36.8855 18.207 36.9638C18.6268 37.135 17.7514 38.1039 17.2513 38.2223C16.8914 38.3075 17.3776 37.5427 17.6784 37.1073Z" fill="white"/>
<path d="M18.7814 36.5267C19.5193 37.002 19.1459 37.2056 18.4555 37.2056C17.5165 37.2056 17.3807 37.4772 18.1296 36.5267C18.1296 36.1517 18.0805 35.8478 18.4555 35.8478C18.8305 35.8478 18.7814 36.1517 18.7814 36.5267Z" fill="white"/>
<path d="M11.9125 37.2193C12.0027 37.0727 12.0042 36.9255 11.8635 36.8271C11.8374 36.8088 11.7691 36.7449 11.7487 36.7203C11.5495 36.4802 10.8412 37.7701 11.0057 38.2351C11.1306 38.4358 11.6477 37.6493 11.9125 37.2193Z" fill="white"/>
<path d="M12.492 37.2376C12.4962 37.0298 12.3488 36.8598 12.1473 36.8107C11.7068 36.7033 11.8495 38.0073 12.1857 38.3978C12.4278 38.6789 12.4811 37.769 12.492 37.2376Z" fill="white"/>
<path d="M12.9476 37.1121C12.8302 36.9414 12.6116 36.8904 12.4197 36.969C12 37.141 12.8753 38.1144 13.3754 38.2333C13.7355 38.319 13.2484 37.5494 12.9476 37.1121Z" fill="white"/>
<path d="M11.8455 36.5299C11.1076 37.0073 11.481 37.212 12.1713 37.212C13.1103 37.212 13.246 37.4848 12.4972 36.5299C12.4972 36.1532 12.5463 35.8478 12.1713 35.8478C11.7964 35.8478 11.8455 36.1532 11.8455 36.5299Z" fill="white"/>
</svg>
